<mxfile host="app.diagrams.net" modified="2023-09-16T01:22:46.347Z" agent="Mozilla/5.0 (Windows NT 10.0; Win64; x64) AppleWebKit/537.36 (KHTML, like Gecko) Chrome/116.0.0.0 Safari/537.36" etag="Qw0eGg_otjzfx8UciogX" version="21.7.5" type="device">
  <diagram id="C5RBs43oDa-KdzZeNtuy" name="Page-1">
    <mxGraphModel dx="2944" dy="644" grid="1" gridSize="10" guides="1" tooltips="1" connect="1" arrows="1" fold="1" page="1" pageScale="1" pageWidth="827" pageHeight="1169" math="0" shadow="0">
      <root>
        <mxCell id="WIyWlLk6GJQsqaUBKTNV-0" />
        <mxCell id="WIyWlLk6GJQsqaUBKTNV-1" parent="WIyWlLk6GJQsqaUBKTNV-0" />
        <mxCell id="zkfFHV4jXpPFQw0GAbJ--0" value="Sistema" style="swimlane;fontStyle=1;align=center;verticalAlign=top;childLayout=stackLayout;horizontal=1;startSize=26;horizontalStack=0;resizeParent=1;resizeLast=0;collapsible=1;marginBottom=0;rounded=0;shadow=0;strokeWidth=1;" parent="WIyWlLk6GJQsqaUBKTNV-1" vertex="1">
          <mxGeometry x="-640" y="720" width="320" height="318" as="geometry">
            <mxRectangle x="230" y="140" width="160" height="26" as="alternateBounds" />
          </mxGeometry>
        </mxCell>
        <mxCell id="zkfFHV4jXpPFQw0GAbJ--1" value="- listaAlunos: List &lt;Aluno&gt;&#xa;- listaOrientador: List&lt;Orientador&gt;&#xa;- listaTG: List&lt;TG&gt;&#xa;- listaTipoTG: List&lt;Tipo TG&gt;&#xa;- listaEntregas: List&lt;Entrega&gt;&#xa;- listaAnos: List&lt;Ano&gt;" style="text;align=left;verticalAlign=top;spacingLeft=4;spacingRight=4;overflow=hidden;rotatable=0;points=[[0,0.5],[1,0.5]];portConstraint=eastwest;" parent="zkfFHV4jXpPFQw0GAbJ--0" vertex="1">
          <mxGeometry y="26" width="320" height="94" as="geometry" />
        </mxCell>
        <mxCell id="zkfFHV4jXpPFQw0GAbJ--4" value="" style="line;html=1;strokeWidth=1;align=left;verticalAlign=middle;spacingTop=-1;spacingLeft=3;spacingRight=3;rotatable=0;labelPosition=right;points=[];portConstraint=eastwest;" parent="zkfFHV4jXpPFQw0GAbJ--0" vertex="1">
          <mxGeometry y="120" width="320" height="8" as="geometry" />
        </mxCell>
        <mxCell id="DyrlEhUT1evfAKf0mOx5-14" value="+ buscarTodosAlunos (): List &amp;lt;Aluno&amp;gt;&lt;br&gt;+ buscarAlunoPorEmail (String ): Aluno&amp;nbsp;&lt;br&gt;+ buscarTodosOrientadores (): List &amp;lt;Orientadores&amp;gt;&lt;br&gt;+ buscarOrientadoresPorEmail (String): Orientador&lt;br&gt;+ buscarTodosTG():List&amp;lt;TG&amp;gt;&lt;br&gt;+ addAluno(Aluno): void&lt;br&gt;+ addOrientador(Orientador): void&lt;br&gt;+ addEntrega(Entrega): void&lt;br&gt;+ buscarTodosPeriodos(): List&amp;lt;Periodo&amp;gt;&lt;br&gt;+ addPeriodo(Periodo): void" style="text;html=1;align=left;verticalAlign=middle;resizable=0;points=[];autosize=1;strokeColor=none;fillColor=none;" parent="zkfFHV4jXpPFQw0GAbJ--0" vertex="1">
          <mxGeometry y="128" width="320" height="160" as="geometry" />
        </mxCell>
        <mxCell id="WAbojJwEJFHwkWnRIhdQ-28" value="" style="edgeStyle=orthogonalEdgeStyle;rounded=0;orthogonalLoop=1;jettySize=auto;html=1;" parent="WIyWlLk6GJQsqaUBKTNV-1" source="zkfFHV4jXpPFQw0GAbJ--6" edge="1">
          <mxGeometry relative="1" as="geometry">
            <mxPoint x="-480" y="710" as="targetPoint" />
          </mxGeometry>
        </mxCell>
        <mxCell id="zkfFHV4jXpPFQw0GAbJ--6" value="Aluno" style="swimlane;fontStyle=1;align=center;verticalAlign=top;childLayout=stackLayout;horizontal=1;startSize=26;horizontalStack=0;resizeParent=1;resizeLast=0;collapsible=1;marginBottom=0;rounded=0;shadow=0;strokeWidth=1;" parent="WIyWlLk6GJQsqaUBKTNV-1" vertex="1">
          <mxGeometry x="-640" y="119" width="320" height="402" as="geometry">
            <mxRectangle x="130" y="380" width="160" height="26" as="alternateBounds" />
          </mxGeometry>
        </mxCell>
        <mxCell id="zkfFHV4jXpPFQw0GAbJ--7" value="- nome: String&#xa;- email: String&#xa;- emailFatec: String&#xa;- listaNotas: List &lt;Nota&gt;&#xa;- descrição: String&#xa;- orientador: eamialOrientador&#xa;- tg: TG&#xa;- tipoTG: TipTG&#xa;- periodo: Periodo" style="text;align=left;verticalAlign=top;spacingLeft=4;spacingRight=4;overflow=hidden;rotatable=0;points=[[0,0.5],[1,0.5]];portConstraint=eastwest;" parent="zkfFHV4jXpPFQw0GAbJ--6" vertex="1">
          <mxGeometry y="26" width="320" height="154" as="geometry" />
        </mxCell>
        <mxCell id="zkfFHV4jXpPFQw0GAbJ--9" value="" style="line;html=1;strokeWidth=1;align=left;verticalAlign=middle;spacingTop=-1;spacingLeft=3;spacingRight=3;rotatable=0;labelPosition=right;points=[];portConstraint=eastwest;" parent="zkfFHV4jXpPFQw0GAbJ--6" vertex="1">
          <mxGeometry y="180" width="320" height="8" as="geometry" />
        </mxCell>
        <mxCell id="zkfFHV4jXpPFQw0GAbJ--10" value="+ getNome(): String&#xa;+ setNome(String): void&#xa;+ getEmail(): String&#xa;+ setEmail(String): void&#xa;+ getEmailFatec(): String&#xa;+ setEmailFatec(String): void&#xa;+ getPeriodo(): Periodo&#xa;+ setPeriodo(Periodo): void&#xa;+ getDescrição(): String&#xa;+ setDescrição(String): void&#xa;+ addNota(Nota):void" style="text;align=left;verticalAlign=top;spacingLeft=4;spacingRight=4;overflow=hidden;rotatable=0;points=[[0,0.5],[1,0.5]];portConstraint=eastwest;fontStyle=4" parent="zkfFHV4jXpPFQw0GAbJ--6" vertex="1">
          <mxGeometry y="188" width="320" height="192" as="geometry" />
        </mxCell>
        <mxCell id="zkfFHV4jXpPFQw0GAbJ--13" value="Orientador" style="swimlane;fontStyle=1;align=center;verticalAlign=top;childLayout=stackLayout;horizontal=1;startSize=26;horizontalStack=0;resizeParent=1;resizeLast=0;collapsible=1;marginBottom=0;rounded=0;shadow=0;strokeWidth=1;" parent="WIyWlLk6GJQsqaUBKTNV-1" vertex="1">
          <mxGeometry x="-1040" y="522" width="320" height="238" as="geometry">
            <mxRectangle x="340" y="380" width="170" height="26" as="alternateBounds" />
          </mxGeometry>
        </mxCell>
        <mxCell id="zkfFHV4jXpPFQw0GAbJ--14" value="- nome: String&#xa;- emailFatec: String" style="text;align=left;verticalAlign=top;spacingLeft=4;spacingRight=4;overflow=hidden;rotatable=0;points=[[0,0.5],[1,0.5]];portConstraint=eastwest;" parent="zkfFHV4jXpPFQw0GAbJ--13" vertex="1">
          <mxGeometry y="26" width="320" height="84" as="geometry" />
        </mxCell>
        <mxCell id="zkfFHV4jXpPFQw0GAbJ--15" value="" style="line;html=1;strokeWidth=1;align=left;verticalAlign=middle;spacingTop=-1;spacingLeft=3;spacingRight=3;rotatable=0;labelPosition=right;points=[];portConstraint=eastwest;" parent="zkfFHV4jXpPFQw0GAbJ--13" vertex="1">
          <mxGeometry y="110" width="320" height="58" as="geometry" />
        </mxCell>
        <mxCell id="DyrlEhUT1evfAKf0mOx5-16" value="+ getNome (): String&lt;br&gt;+ setNome (String):void&lt;br&gt;+ getemailFatec ():String&lt;br&gt;+ setemailFatec (String): void&lt;br&gt;" style="text;html=1;align=left;verticalAlign=middle;resizable=0;points=[];autosize=1;strokeColor=none;fillColor=none;" parent="zkfFHV4jXpPFQw0GAbJ--13" vertex="1">
          <mxGeometry y="168" width="320" height="70" as="geometry" />
        </mxCell>
        <mxCell id="DyrlEhUT1evfAKf0mOx5-9" value="Nota" style="swimlane;fontStyle=1;align=center;verticalAlign=top;childLayout=stackLayout;horizontal=1;startSize=26;horizontalStack=0;resizeParent=1;resizeParentMax=0;resizeLast=0;collapsible=1;marginBottom=0;whiteSpace=wrap;html=1;" parent="WIyWlLk6GJQsqaUBKTNV-1" vertex="1">
          <mxGeometry x="-240" y="200" width="180" height="240" as="geometry" />
        </mxCell>
        <mxCell id="DyrlEhUT1evfAKf0mOx5-10" value="- idNota: int&lt;br&gt;- feedback: String&lt;br&gt;- valor: float&lt;br&gt;- entrega: Entrega" style="text;strokeColor=none;fillColor=none;align=left;verticalAlign=top;spacingLeft=4;spacingRight=4;overflow=hidden;rotatable=0;points=[[0,0.5],[1,0.5]];portConstraint=eastwest;whiteSpace=wrap;html=1;" parent="DyrlEhUT1evfAKf0mOx5-9" vertex="1">
          <mxGeometry y="26" width="180" height="74" as="geometry" />
        </mxCell>
        <mxCell id="DyrlEhUT1evfAKf0mOx5-11" value="" style="line;strokeWidth=1;fillColor=none;align=left;verticalAlign=middle;spacingTop=-1;spacingLeft=3;spacingRight=3;rotatable=0;labelPosition=right;points=[];portConstraint=eastwest;strokeColor=inherit;" parent="DyrlEhUT1evfAKf0mOx5-9" vertex="1">
          <mxGeometry y="100" width="180" height="8" as="geometry" />
        </mxCell>
        <mxCell id="DyrlEhUT1evfAKf0mOx5-12" value="+ getIdNota():int&lt;br&gt;+ setIdNota(int): void&lt;br&gt;+ getFeedback():String&lt;br&gt;+ setFeedback(String):void&lt;br&gt;+ getValor():float&lt;br&gt;+ setValor(float):void&lt;br&gt;+ getEntrega():Entrega&lt;br&gt;+ setEntrega(Entrega): void" style="text;strokeColor=none;fillColor=none;align=left;verticalAlign=top;spacingLeft=4;spacingRight=4;overflow=hidden;rotatable=0;points=[[0,0.5],[1,0.5]];portConstraint=eastwest;whiteSpace=wrap;html=1;" parent="DyrlEhUT1evfAKf0mOx5-9" vertex="1">
          <mxGeometry y="108" width="180" height="132" as="geometry" />
        </mxCell>
        <mxCell id="WAbojJwEJFHwkWnRIhdQ-18" value="" style="edgeStyle=orthogonalEdgeStyle;rounded=0;orthogonalLoop=1;jettySize=auto;html=1;exitX=0.502;exitY=1.029;exitDx=0;exitDy=0;exitPerimeter=0;entryX=0.5;entryY=0;entryDx=0;entryDy=0;" parent="WIyWlLk6GJQsqaUBKTNV-1" source="DyrlEhUT1evfAKf0mOx5-12" target="DyrlEhUT1evfAKf0mOx5-17" edge="1">
          <mxGeometry relative="1" as="geometry">
            <mxPoint x="-150" y="470" as="targetPoint" />
            <Array as="points" />
          </mxGeometry>
        </mxCell>
        <mxCell id="DyrlEhUT1evfAKf0mOx5-17" value="Entrega" style="swimlane;fontStyle=1;align=center;verticalAlign=top;childLayout=stackLayout;horizontal=1;startSize=26;horizontalStack=0;resizeParent=1;resizeParentMax=0;resizeLast=0;collapsible=1;marginBottom=0;whiteSpace=wrap;html=1;" parent="WIyWlLk6GJQsqaUBKTNV-1" vertex="1">
          <mxGeometry x="-240" y="480" width="180" height="280" as="geometry" />
        </mxCell>
        <mxCell id="DyrlEhUT1evfAKf0mOx5-18" value="- idEntrega: int&lt;br&gt;- dataEntrega: Date&lt;br&gt;- título: String&lt;br&gt;- idPeriodo: Iint&lt;br&gt;- tg: TG" style="text;strokeColor=none;fillColor=none;align=left;verticalAlign=top;spacingLeft=4;spacingRight=4;overflow=hidden;rotatable=0;points=[[0,0.5],[1,0.5]];portConstraint=eastwest;whiteSpace=wrap;html=1;" parent="DyrlEhUT1evfAKf0mOx5-17" vertex="1">
          <mxGeometry y="26" width="180" height="74" as="geometry" />
        </mxCell>
        <mxCell id="DyrlEhUT1evfAKf0mOx5-19" value="" style="line;strokeWidth=1;fillColor=none;align=left;verticalAlign=middle;spacingTop=-1;spacingLeft=3;spacingRight=3;rotatable=0;labelPosition=right;points=[];portConstraint=eastwest;strokeColor=inherit;" parent="DyrlEhUT1evfAKf0mOx5-17" vertex="1">
          <mxGeometry y="100" width="180" height="8" as="geometry" />
        </mxCell>
        <mxCell id="DyrlEhUT1evfAKf0mOx5-20" value="+ getIdEntrega(): int&lt;br&gt;+ setIdEntrega(int):void&lt;br&gt;+ getDataEntrega (): Date&lt;br&gt;+ setDataEntrega(Date):void&lt;br&gt;+ getTítulo (): String&lt;br&gt;+ setTítulo(String): void&lt;br&gt;+ get Periodo(): Periodo&lt;br&gt;+ setPeriodo(Periodo): void&lt;br&gt;+ getTG(): TG&lt;br&gt;+ setTG(TG): void&lt;br&gt;" style="text;strokeColor=none;fillColor=none;align=left;verticalAlign=top;spacingLeft=4;spacingRight=4;overflow=hidden;rotatable=0;points=[[0,0.5],[1,0.5]];portConstraint=eastwest;whiteSpace=wrap;html=1;" parent="DyrlEhUT1evfAKf0mOx5-17" vertex="1">
          <mxGeometry y="108" width="180" height="172" as="geometry" />
        </mxCell>
        <mxCell id="DyrlEhUT1evfAKf0mOx5-22" value="TG" style="swimlane;fontStyle=1;align=center;verticalAlign=top;childLayout=stackLayout;horizontal=1;startSize=26;horizontalStack=0;resizeParent=1;resizeParentMax=0;resizeLast=0;collapsible=1;marginBottom=0;whiteSpace=wrap;html=1;" parent="WIyWlLk6GJQsqaUBKTNV-1" vertex="1">
          <mxGeometry x="80" y="720" width="180" height="140" as="geometry" />
        </mxCell>
        <mxCell id="OD9DnkSS-2-qvDJjl4iS-16" value="- matrícula: String&lt;br&gt;- tipoTG: String" style="text;html=1;align=left;verticalAlign=middle;resizable=0;points=[];autosize=1;strokeColor=none;fillColor=none;" parent="DyrlEhUT1evfAKf0mOx5-22" vertex="1">
          <mxGeometry y="26" width="180" height="40" as="geometry" />
        </mxCell>
        <mxCell id="DyrlEhUT1evfAKf0mOx5-24" value="" style="line;strokeWidth=1;fillColor=none;align=left;verticalAlign=middle;spacingTop=-1;spacingLeft=3;spacingRight=3;rotatable=0;labelPosition=right;points=[];portConstraint=eastwest;strokeColor=inherit;" parent="DyrlEhUT1evfAKf0mOx5-22" vertex="1">
          <mxGeometry y="66" width="180" height="4" as="geometry" />
        </mxCell>
        <mxCell id="DyrlEhUT1evfAKf0mOx5-25" value="+ getMatrícula(): String&lt;br&gt;+ setMatrícula(String): void&lt;br&gt;+ getTipoTG(): String&lt;br&gt;+ setTipoTG(String): void" style="text;strokeColor=none;fillColor=none;align=left;verticalAlign=top;spacingLeft=4;spacingRight=4;overflow=hidden;rotatable=0;points=[[0,0.5],[1,0.5]];portConstraint=eastwest;whiteSpace=wrap;html=1;" parent="DyrlEhUT1evfAKf0mOx5-22" vertex="1">
          <mxGeometry y="70" width="180" height="70" as="geometry" />
        </mxCell>
        <mxCell id="WAbojJwEJFHwkWnRIhdQ-20" value="" style="edgeStyle=orthogonalEdgeStyle;rounded=0;orthogonalLoop=1;jettySize=auto;html=1;entryX=0.493;entryY=1.012;entryDx=0;entryDy=0;entryPerimeter=0;" parent="WIyWlLk6GJQsqaUBKTNV-1" source="OD9DnkSS-2-qvDJjl4iS-1" target="DyrlEhUT1evfAKf0mOx5-20" edge="1">
          <mxGeometry relative="1" as="geometry">
            <Array as="points">
              <mxPoint x="-151" y="790" />
              <mxPoint x="-151" y="790" />
            </Array>
          </mxGeometry>
        </mxCell>
        <mxCell id="OD9DnkSS-2-qvDJjl4iS-1" value="Período" style="swimlane;fontStyle=1;align=center;verticalAlign=top;childLayout=stackLayout;horizontal=1;startSize=26;horizontalStack=0;resizeParent=1;resizeParentMax=0;resizeLast=0;collapsible=1;marginBottom=0;whiteSpace=wrap;html=1;" parent="WIyWlLk6GJQsqaUBKTNV-1" vertex="1">
          <mxGeometry x="-240" y="799" width="180" height="160" as="geometry" />
        </mxCell>
        <mxCell id="OD9DnkSS-2-qvDJjl4iS-2" value="- ano: int&lt;br&gt;- semestre: int" style="text;strokeColor=none;fillColor=none;align=left;verticalAlign=top;spacingLeft=4;spacingRight=4;overflow=hidden;rotatable=0;points=[[0,0.5],[1,0.5]];portConstraint=eastwest;whiteSpace=wrap;html=1;" parent="OD9DnkSS-2-qvDJjl4iS-1" vertex="1">
          <mxGeometry y="26" width="180" height="54" as="geometry" />
        </mxCell>
        <mxCell id="OD9DnkSS-2-qvDJjl4iS-3" value="" style="line;strokeWidth=1;fillColor=none;align=left;verticalAlign=middle;spacingTop=-1;spacingLeft=3;spacingRight=3;rotatable=0;labelPosition=right;points=[];portConstraint=eastwest;strokeColor=inherit;" parent="OD9DnkSS-2-qvDJjl4iS-1" vertex="1">
          <mxGeometry y="80" width="180" height="8" as="geometry" />
        </mxCell>
        <mxCell id="OD9DnkSS-2-qvDJjl4iS-4" value="+ getAno(): int&lt;br&gt;+ setAno(int): void&lt;br&gt;+ getSemestre(): int&lt;br&gt;+ setSemestre(int): void" style="text;strokeColor=none;fillColor=none;align=left;verticalAlign=top;spacingLeft=4;spacingRight=4;overflow=hidden;rotatable=0;points=[[0,0.5],[1,0.5]];portConstraint=eastwest;whiteSpace=wrap;html=1;" parent="OD9DnkSS-2-qvDJjl4iS-1" vertex="1">
          <mxGeometry y="88" width="180" height="72" as="geometry" />
        </mxCell>
        <mxCell id="WAbojJwEJFHwkWnRIhdQ-5" value="" style="endArrow=classic;html=1;rounded=0;" parent="WIyWlLk6GJQsqaUBKTNV-1" edge="1">
          <mxGeometry width="50" height="50" relative="1" as="geometry">
            <mxPoint x="-317" y="131" as="sourcePoint" />
            <mxPoint x="270" y="782" as="targetPoint" />
            <Array as="points">
              <mxPoint x="310" y="130" />
              <mxPoint x="310" y="782" />
            </Array>
          </mxGeometry>
        </mxCell>
        <mxCell id="WAbojJwEJFHwkWnRIhdQ-7" value="" style="endArrow=classic;html=1;rounded=0;exitX=1.009;exitY=0.427;exitDx=0;exitDy=0;exitPerimeter=0;" parent="WIyWlLk6GJQsqaUBKTNV-1" edge="1">
          <mxGeometry width="50" height="50" relative="1" as="geometry">
            <mxPoint x="-320" y="1020" as="sourcePoint" />
            <mxPoint x="186" y="870" as="targetPoint" />
            <Array as="points">
              <mxPoint x="186" y="1020" />
            </Array>
          </mxGeometry>
        </mxCell>
        <mxCell id="WAbojJwEJFHwkWnRIhdQ-8" value="" style="endArrow=classic;html=1;rounded=0;exitX=0.465;exitY=1.041;exitDx=0;exitDy=0;exitPerimeter=0;" parent="WIyWlLk6GJQsqaUBKTNV-1" source="DyrlEhUT1evfAKf0mOx5-16" edge="1">
          <mxGeometry width="50" height="50" relative="1" as="geometry">
            <mxPoint x="-640" y="744.54" as="sourcePoint" />
            <mxPoint x="-650" y="800" as="targetPoint" />
            <Array as="points">
              <mxPoint x="-891" y="800" />
            </Array>
          </mxGeometry>
        </mxCell>
        <mxCell id="WAbojJwEJFHwkWnRIhdQ-23" style="edgeStyle=orthogonalEdgeStyle;rounded=0;orthogonalLoop=1;jettySize=auto;html=1;entryX=1.014;entryY=0.316;entryDx=0;entryDy=0;entryPerimeter=0;" parent="WIyWlLk6GJQsqaUBKTNV-1" source="DyrlEhUT1evfAKf0mOx5-20" target="zkfFHV4jXpPFQw0GAbJ--1" edge="1">
          <mxGeometry relative="1" as="geometry" />
        </mxCell>
        <mxCell id="WAbojJwEJFHwkWnRIhdQ-24" value="" style="edgeStyle=orthogonalEdgeStyle;rounded=0;orthogonalLoop=1;jettySize=auto;html=1;" parent="WIyWlLk6GJQsqaUBKTNV-1" source="OD9DnkSS-2-qvDJjl4iS-4" target="DyrlEhUT1evfAKf0mOx5-14" edge="1">
          <mxGeometry relative="1" as="geometry">
            <Array as="points">
              <mxPoint x="-280" y="923" />
              <mxPoint x="-280" y="923" />
            </Array>
          </mxGeometry>
        </mxCell>
        <mxCell id="WAbojJwEJFHwkWnRIhdQ-29" value="" style="edgeStyle=orthogonalEdgeStyle;rounded=0;orthogonalLoop=1;jettySize=auto;html=1;" parent="WIyWlLk6GJQsqaUBKTNV-1" source="zkfFHV4jXpPFQw0GAbJ--10" edge="1">
          <mxGeometry relative="1" as="geometry">
            <Array as="points">
              <mxPoint x="-890" y="403" />
            </Array>
            <mxPoint x="-890" y="510" as="targetPoint" />
          </mxGeometry>
        </mxCell>
        <mxCell id="WAbojJwEJFHwkWnRIhdQ-30" style="edgeStyle=orthogonalEdgeStyle;rounded=0;orthogonalLoop=1;jettySize=auto;html=1;entryX=-0.025;entryY=0.321;entryDx=0;entryDy=0;entryPerimeter=0;" parent="WIyWlLk6GJQsqaUBKTNV-1" source="zkfFHV4jXpPFQw0GAbJ--10" target="DyrlEhUT1evfAKf0mOx5-18" edge="1">
          <mxGeometry relative="1" as="geometry">
            <mxPoint x="-250" y="470" as="targetPoint" />
          </mxGeometry>
        </mxCell>
        <mxCell id="WAbojJwEJFHwkWnRIhdQ-26" value="" style="edgeStyle=orthogonalEdgeStyle;rounded=0;orthogonalLoop=1;jettySize=auto;html=1;" parent="WIyWlLk6GJQsqaUBKTNV-1" source="zkfFHV4jXpPFQw0GAbJ--10" edge="1">
          <mxGeometry relative="1" as="geometry">
            <Array as="points">
              <mxPoint x="-240" y="320" />
            </Array>
            <mxPoint x="-240" y="320" as="targetPoint" />
          </mxGeometry>
        </mxCell>
        <mxCell id="TdkMEY_sSJG_q3O5w1d3-1" style="edgeStyle=orthogonalEdgeStyle;rounded=0;orthogonalLoop=1;jettySize=auto;html=1;entryX=1;entryY=0.5;entryDx=0;entryDy=0;" edge="1" parent="WIyWlLk6GJQsqaUBKTNV-1">
          <mxGeometry relative="1" as="geometry">
            <mxPoint x="-60" y="921.48" as="targetPoint" />
            <mxPoint x="-320" y="158.48" as="sourcePoint" />
            <Array as="points">
              <mxPoint x="-10" y="158.48" />
              <mxPoint x="-10" y="921.48" />
            </Array>
          </mxGeometry>
        </mxCell>
      </root>
    </mxGraphModel>
  </diagram>
</mxfile>
